<?xml version="1.0" standalone="no"?>
<svg viewBox="0 0 200 200" xmlns="http://www.w3.org/2000/svg">
  <path fill="#d445b133" d="M33.7,-60.5C37.9,-56.1,31.2,-35.2,31.1,-22.3C31,-9.5,37.4,-4.7,37.6,0.1C37.7,4.9,31.5,9.8,27.8,15.9C24,22.1,22.6,29.5,18.4,42.2C14.2,55,7.1,73,-1.3,75.3C-9.7,77.5,-19.4,64,-30.3,55.1C-41.3,46.3,-53.5,42.1,-57.5,33.7C-61.6,25.3,-57.5,12.6,-60.6,-1.8C-63.7,-16.2,-74,-32.5,-70.9,-42.4C-67.7,-52.4,-51.1,-56.1,-37,-54.7C-23,-53.4,-11.5,-47.1,1.7,-49.9C14.8,-52.8,29.6,-64.9,33.7,-60.5Z" transform="translate(100 100)" />
</svg>
