<?xml version="1.0" standalone="no"?>
<svg viewBox="0 0 200 200" xmlns="http://www.w3.org/2000/svg">
  <path fill="#90e9f833" d="M35.7,-63.1C47.7,-55,59.5,-48.1,68,-37.8C76.6,-27.5,81.7,-13.7,79.1,-1.5C76.6,10.8,66.3,21.6,58.7,33.4C51.1,45.3,46,58.1,36.7,66.3C27.3,74.6,13.7,78.1,-0.2,78.4C-14,78.6,-28,75.6,-41.7,70C-55.4,64.3,-68.9,55.9,-78.3,43.8C-87.8,31.7,-93.2,15.8,-89,2.4C-84.8,-11,-70.9,-22,-59.9,-31.4C-49,-40.9,-40.9,-48.9,-31.4,-58.4C-21.9,-67.8,-10.9,-78.8,0.5,-79.7C11.9,-80.5,23.8,-71.2,35.7,-63.1Z" transform="translate(100 100)" />
</svg>
