<?xml version="1.0" standalone="no"?>
<svg viewBox="0 0 200 200" xmlns="http://www.w3.org/2000/svg">
  <path fill="#4b70d433" d="M24,-45.4C29.3,-38.6,30.4,-28.4,32.3,-20.3C34.2,-12.1,36.9,-6.1,42.9,3.5C48.9,13,58.2,26,54.4,30.9C50.7,35.8,33.8,32.6,22.6,30.5C11.3,28.4,5.7,27.4,-0.5,28.2C-6.7,29.1,-13.3,31.9,-23.6,33.4C-33.8,34.9,-47.5,35.1,-53.7,29.4C-60,23.6,-58.6,11.8,-60.9,-1.3C-63.2,-14.5,-69.2,-28.9,-67.4,-42.3C-65.5,-55.7,-55.9,-67.9,-43.4,-70.5C-30.9,-73,-15.4,-65.8,-3,-60.6C9.4,-55.4,18.8,-52.1,24,-45.4Z" transform="translate(100 100)" />
</svg>
