<svg xmlns="http://www.w3.org/2000/svg" xmlns:xlink="http://www.w3.org/1999/xlink" viewBox="0 0 24 24"
  fill="currentColor" class="w-6 h-6">
  <path id="web"
    d="M21.721 12.752a9.711 9.711 0 00-.945-5.003 12.754 12.754 0 01-4.339 2.708 18.991 18.991 0 01-.214 4.772 17.165 17.165 0 005.498-2.477zM14.634 15.55a17.324 17.324 0 00.332-4.647c-.952.227-1.945.347-2.966.347-1.021 0-2.014-.12-2.966-.347a17.515 17.515 0 00.332 4.647 17.385 17.385 0 005.268 0zM9.772 17.119a18.963 18.963 0 004.456 0A17.182 17.182 0 0112 21.724a17.18 17.18 0 01-2.228-4.605zM7.777 15.23a18.87 18.87 0 01-.214-4.774 12.753 12.753 0 01-4.34-2.708 9.711 9.711 0 00-.944 5.004 17.165 17.165 0 005.498 2.477zM21.356 14.752a9.765 9.765 0 01-7.478 6.817 18.64 18.64 0 001.988-4.718 18.627 18.627 0 005.49-2.098zM2.644 14.752c1.682.971 3.53 1.688 5.49 2.099a18.64 18.64 0 001.988 4.718 9.765 9.765 0 01-7.478-6.816zM13.878 2.43a9.755 9.755 0 016.116 3.986 11.267 11.267 0 01-3.746 2.504 18.63 18.63 0 00-2.37-6.49zM12 2.276a17.152 17.152 0 012.805 7.121c-.897.23-1.837.353-2.805.353-.968 0-1.908-.122-2.805-.353A17.151 17.151 0 0112 2.276zM10.122 2.43a18.629 18.629 0 00-2.37 6.49 11.266 11.266 0 01-3.746-2.504 9.754 9.754 0 016.116-3.985z" />
  <g id="server">
    <path
      d="M5.507 4.048A3 3 0 017.785 3h8.43a3 3 0 012.278 1.048l1.722 2.008A4.533 4.533 0 0019.5 6h-15c-.243 0-.482.02-.715.056l1.722-2.008z" />
    <path fill-rule="evenodd"
      d="M1.5 10.5a3 3 0 013-3h15a3 3 0 110 6h-15a3 3 0 01-3-3zm15 0a.75.75 0 11-1.5 0 .75.75 0 011.5 0zm2.25.75a.75.75 0 100-1.5.75.75 0 000 1.5zM4.5 15a3 3 0 100 6h15a3 3 0 100-6h-15zm11.25 3.75a.75.75 0 100-1.5.75.75 0 000 1.5zM19.5 18a.75.75 0 11-1.5 0 .75.75 0 011.5 0z"
      clip-rule="evenodd" />
  </g>
  <g id="data">
    <path d="M21 6.375c0 2.692-4.03 4.875-9 4.875S3 9.067 3 6.375 7.03 1.5 12 1.5s9 2.183 9 4.875z" />
    <path
      d="M12 12.75c2.685 0 5.19-.586 7.078-1.609a8.283 8.283 0 001.897-1.384c.016.121.025.244.025.368C21 12.817 16.97 15 12 15s-9-2.183-9-4.875c0-.124.009-.247.025-.368a8.285 8.285 0 001.897 1.384C6.809 12.164 9.315 12.75 12 12.75z" />
    <path
      d="M12 16.5c2.685 0 5.19-.586 7.078-1.609a8.282 8.282 0 001.897-1.384c.016.121.025.244.025.368 0 2.692-4.03 4.875-9 4.875s-9-2.183-9-4.875c0-.124.009-.247.025-.368a8.284 8.284 0 001.897 1.384C6.809 15.914 9.315 16.5 12 16.5z" />
    <path
      d="M12 20.25c2.685 0 5.19-.586 7.078-1.609a8.282 8.282 0 001.897-1.384c.016.121.025.244.025.368 0 2.692-4.03 4.875-9 4.875s-9-2.183-9-4.875c0-.124.009-.247.025-.368a8.284 8.284 0 001.897 1.384C6.809 19.664 9.315 20.25 12 20.25z" />
  </g>
  <g id="mobile">
    <path d="M10.5 18.75a.75.75 0 000 1.5h3a.75.75 0 000-1.5h-3z" />
    <path fill-rule="evenodd"
      d="M8.625.75A3.375 3.375 0 005.25 4.125v15.75a3.375 3.375 0 003.375 3.375h6.75a3.375 3.375 0 003.375-3.375V4.125A3.375 3.375 0 0015.375.75h-6.75zM7.5 4.125C7.5 3.504 8.004 3 8.625 3H9.75v.375c0 .621.504 1.125 1.125 1.125h2.25c.621 0 1.125-.504 1.125-1.125V3h1.125c.621 0 1.125.504 1.125 1.125v15.75c0 .621-.504 1.125-1.125 1.125h-6.75A1.125 1.125 0 017.5 19.875V4.125z"
      clip-rule="evenodd" />
  </g>
  <path id="dev" fill-rule="evenodd"
    d="M11.622 1.602a.75.75 0 01.756 0l2.25 1.313a.75.75 0 01-.756 1.295L12 3.118 10.128 4.21a.75.75 0 11-.756-1.295l2.25-1.313zM5.898 5.81a.75.75 0 01-.27 1.025l-1.14.665 1.14.665a.75.75 0 11-.756 1.295L3.75 8.806v.944a.75.75 0 01-1.5 0V7.5a.75.75 0 01.372-.648l2.25-1.312a.75.75 0 011.026.27zm12.204 0a.75.75 0 011.026-.27l2.25 1.312a.75.75 0 01.372.648v2.25a.75.75 0 01-1.5 0v-.944l-1.122.654a.75.75 0 11-.756-1.295l1.14-.665-1.14-.665a.75.75 0 01-.27-1.025zm-9 5.25a.75.75 0 011.026-.27L12 11.882l1.872-1.092a.75.75 0 11.756 1.295l-1.878 1.096V15a.75.75 0 01-1.5 0v-1.82l-1.878-1.095a.75.75 0 01-.27-1.025zM3 13.5a.75.75 0 01.75.75v1.82l1.878 1.095a.75.75 0 11-.756 1.295l-2.25-1.312a.75.75 0 01-.372-.648v-2.25A.75.75 0 013 13.5zm18 0a.75.75 0 01.75.75v2.25a.75.75 0 01-.372.648l-2.25 1.312a.75.75 0 11-.756-1.295l1.878-1.096V14.25a.75.75 0 01.75-.75zm-9 5.25a.75.75 0 01.75.75v.944l1.122-.654a.75.75 0 11.756 1.295l-2.25 1.313a.75.75 0 01-.756 0l-2.25-1.313a.75.75 0 11.756-1.295l1.122.654V19.5a.75.75 0 01.75-.75z"
    clip-rule="evenodd" />
  <path id="cloud" fill-rule="evenodd"
    d="M4.5 9.75a6 6 0 0111.573-2.226 3.75 3.75 0 014.133 4.303A4.5 4.5 0 0118 20.25H6.75a5.25 5.25 0 01-2.23-10.004 6.072 6.072 0 01-.02-.496z"
    clip-rule="evenodd" />
</svg>